<?xml version="1.0" standalone="no"?>
<!DOCTYPE svg PUBLIC "-//W3C//DTD SVG 1.1//EN" "http://www.w3.org/Graphics/SVG/1.1/DTD/svg11.dtd">
<svg width="66mm" height="32mm" viewBox="-30 -16 66 32" xmlns="http://www.w3.org/2000/svg" version="1.1">
<title>OpenSCAD Model</title>
<path d="
M 26.4949,15.1722 L 27.8288,14.5298 L 29.0998,13.7704 L 30.2976,12.9002 L 31.4125,11.9261 L 32.4357,10.856
 L 33.3588,9.69846 L 34.1744,8.46283 L 34.876,7.15907 L 35.2419,6.30296 L 28.9389,-0 L 35.2419,-6.30296
 L 34.876,-7.15907 L 34.1744,-8.46283 L 33.3588,-9.69846 L 32.4357,-10.856 L 31.4125,-11.9261 L 30.2976,-12.9002
 L 29.0998,-13.7704 L 27.8288,-14.5298 L 26.4949,-15.1722 L 26.3192,-15.2381 L 20.01,-8.92892 L 13.7008,-15.2381
 L 13.5251,-15.1722 L 12.1912,-14.5298 L 10.9202,-13.7704 L 9.72242,-12.9002 L 8.82153,-12.1131 L 8.26344,-12.5186
 L 7.10801,-13.2089 L 5.89537,-13.7929 L 4.63525,-14.2658 L 3.33779,-14.6239 L 2.01348,-14.8642 L 0.672954,-14.9849
 L -0.672963,-14.9849 L -2.01349,-14.8642 L -3.3378,-14.6239 L -4.63526,-14.2658 L -5.89537,-13.7929 L -7.10802,-13.2089
 L -8.26345,-12.5186 L -9.35234,-11.7275 L -9.99001,-11.1704 L -10.6277,-11.7275 L -11.7166,-12.5186 L -12.872,-13.2089
 L -14.0846,-13.7929 L -15.3447,-14.2658 L -16.6422,-14.6239 L -17.9665,-14.8642 L -19.307,-14.9849 L -19.98,-14.9849
 L -19.98,-15 L -29.98,-15 L -29.98,15 L -19.98,15 L -19.98,14.9849 L -19.307,14.9849
 L -17.9665,14.8642 L -16.6422,14.6239 L -15.3447,14.2658 L -14.0846,13.7929 L -12.872,13.2089 L -11.7166,12.5186
 L -10.6277,11.7275 L -9.98999,11.1704 L -9.35234,11.7275 L -8.26345,12.5186 L -7.10802,13.2089 L -5.89537,13.7929
 L -4.63526,14.2658 L -3.3378,14.6239 L -2.01349,14.8642 L -0.672963,14.9849 L 0.672954,14.9849 L 2.01348,14.8642
 L 3.33779,14.6239 L 4.63525,14.2658 L 5.89537,13.7929 L 7.10801,13.2089 L 8.26344,12.5186 L 8.82153,12.1131
 L 9.72242,12.9002 L 10.9202,13.7704 L 12.1912,14.5298 L 13.5251,15.1722 L 13.7008,15.2381 L 20.01,8.92892
 L 26.3192,15.2381 z
M -19.98,3.99597 L -19.98,-3.99597 L -19.8005,-3.99597 L -19.4431,-3.96379 L -19.0899,-3.8997 L -18.7439,-3.80421
 L -18.4079,-3.6781 L -18.0845,-3.52237 L -17.7764,-3.33829 L -17.486,-3.12732 L -17.2158,-2.89117 L -16.9677,-2.63174
 L -16.7439,-2.35114 L -16.5462,-2.05159 L -16.3761,-1.73553 L -16.2351,-1.40549 L -16.1241,-1.06413 L -16.0443,-0.714218
 L -15.9961,-0.358551 L -15.98,-0 L -15.9961,0.358551 L -16.0443,0.714218 L -16.1241,1.06413 L -16.2351,1.40549
 L -16.3761,1.73553 L -16.5462,2.05159 L -16.7439,2.35114 L -16.9677,2.63174 L -17.2158,2.89117 L -17.486,3.12732
 L -17.7764,3.33829 L -18.0845,3.52237 L -18.4079,3.6781 L -18.7439,3.80421 L -19.0899,3.8997 L -19.4431,3.96379
 L -19.8005,3.99597 z
M -3.70455,-1.5 L -3.60387,-1.73553 L -3.4338,-2.05159 L -3.23606,-2.35114 L -3.01229,-2.63174 L -2.76424,-2.89117
 L -2.49396,-3.12732 L -2.20359,-3.33829 L -1.89547,-3.52237 L -1.5721,-3.6781 L -1.23606,-3.80421 L -0.89008,-3.8997
 L -0.536931,-3.96379 L -0.179463,-3.99597 L 0.179454,-3.99597 L 0.536922,-3.96379 L 0.890071,-3.8997 L 1.23605,-3.80421
 L 1.57209,-3.6781 L 1.89546,-3.52237 L 2.20358,-3.33829 L 2.49395,-3.12732 L 2.76423,-2.89117 L 3.01228,-2.63174
 L 3.23605,-2.35114 L 3.43379,-2.05159 L 3.60386,-1.73553 L 3.70454,-1.5 z
M -4.27246e-06,4 L -4.27246e-06,3.99597 L -0.179463,3.99597 L -0.536931,3.96379 L -0.89008,3.8997 L -1.23606,3.80421
 L -1.5721,3.6781 L -1.89547,3.52237 L -2.20359,3.33829 L -2.49396,3.12732 L -2.76424,2.89117 L -3.01229,2.63174
 L -3.23606,2.35114 L -3.4338,2.05159 L -3.60387,1.73553 L -3.70455,1.5 L 9.58107,1.5 L 7.08105,4
 z
" stroke="black" fill="lightgray" stroke-width="0.5"/>
</svg>
